<svg width="530" height="518" viewBox="0 0 530 518" fill="none" xmlns="http://www.w3.org/2000/svg">
<path fill-rule="evenodd" clip-rule="evenodd" d="M21.9 50H22L23.7143 47.8571L23.5 48L21.9 50ZM58.5714 48.6429L59 48.5L59.5 46V45.5H59V46.5L58.5714 48.6429ZM62.5833 43.3333L63 43L63.25 42.5H63L62.5833 43.3333ZM64.3333 42H64.5L65.5 40.5L65.75 40H65.5L65 41L64.3333 42ZM73 37.5L73.5 37V36.25L73 36.5V37.5ZM73.8534 35.8233L74.5 35.5H76H82.2921L82.4901 35.28L81.9861 34.416C81.6021 33.552 81.4101 32.592 81.4101 31.536C81.4101 30.432 81.7701 28.8 82.4901 26.64L83.0661 24.84H94.2261L95.6661 29.088C96.1942 30.672 96.4581 31.656 96.4581 32.04C96.4581 32.3999 96.4022 32.7199 96.2904 33H97.5L101 33.5L104 34.5H105.5L105.973 34.027C105.5 33.5849 105.112 33.1626 104.81 32.76C104.234 31.944 103.706 30.864 103.226 29.52L93.7941 2.37601H84.0021L83.4981 3.672L84.2901 3.888C85.8261 4.32001 86.5941 5.064 86.5941 6.12C86.5941 6.60001 86.4261 7.44 86.0901 8.63998L78.7461 29.808C78.2181 31.344 77.6661 32.424 77.0901 33.048C76.5141 33.624 75.6501 34.08 74.4981 34.416L73.4182 34.704L73.8534 35.8233ZM107.833 33.5H108L108.667 32.5H108.5L107.833 33.5ZM109.833 32H110L110.187 31.7195C110.19 31.6357 110.191 31.5496 110.192 31.4613L110.5 31H110.667L111 30.5H112.75L113.5 29L113.833 28.8333L114 28.5L115 28L116.698 27.1512C116.811 23.9783 117.331 21.36 118.258 19.296C119.362 16.944 120.778 15.768 122.506 15.768C124.282 15.768 125.17 17.16 125.17 19.944V28.266L126.5 28L128 28.5L129 30H130.5L131.65 29.7126V20.52C131.65 17.592 131.17 15.456 130.21 14.112C129.298 12.768 127.81 12.096 125.746 12.096C123.826 12.096 122.002 12.864 120.274 14.4C118.546 15.888 117.346 17.76 116.674 20.016V13.824C116.674 13.344 116.482 12.96 116.098 12.672C115.762 12.384 115.282 12.24 114.658 12.24C113.218 12.24 111.778 12.504 110.338 13.032C108.898 13.56 107.698 14.232 106.738 15.048L106.954 15.84H109.258C109.882 15.84 110.194 16.296 110.194 17.208V31.248C110.194 31.3205 110.193 31.3916 110.192 31.4613L109.833 32ZM160 68.5H159.5L159.833 69H160V68.5ZM170.061 71.5C170.071 67.7324 171.199 64.7257 173.445 62.48C175.701 60.224 178.701 59.096 182.445 59.096C185.085 59.096 187.221 59.696 188.853 60.896C190.485 62.048 191.301 63.56 191.301 65.432C191.301 67.016 190.821 68.264 189.861 69.176C188.901 70.088 187.725 70.544 186.333 70.544C185.229 70.544 184.221 70.256 183.309 69.68C184.365 68.72 184.893 67.376 184.893 65.648C184.893 64.256 184.605 63.128 184.029 62.264C183.453 61.352 182.613 60.896 181.509 60.896C180.261 60.896 179.229 61.88 178.413 63.848C177.894 65.1436 177.551 66.7125 177.383 68.5546L177 68.5L175.5 69L173 70.5L171.5 71.5H170.061ZM193.73 78.8127C192.395 76.8189 191.728 74.3507 191.728 71.408C191.728 67.616 192.808 64.616 194.968 62.408C197.176 60.2 200.152 59.096 203.896 59.096C207.64 59.096 210.616 60.224 212.824 62.48C215.032 64.688 216.136 67.664 216.136 71.408C216.136 75.152 215.032 78.128 212.824 80.336C210.616 82.544 207.64 83.648 203.896 83.648C200.828 83.648 198.276 82.9067 196.24 81.4242C196.398 80.6134 196.5 80 196.5 80L193.73 78.8127ZM222.5 139.638C221.621 139.923 220.481 140.506 219.643 141.463C220.589 140.631 221.738 140.169 222.5 140V139.638ZM226 195.875L224.5 197L224.333 197.25L226 196V195.875ZM220.625 239.315C220.227 239.624 219.613 240.062 219 240.5C218.125 241.125 217.25 241.75 217 242C216.953 242.047 216.826 242.179 216.634 242.379C216.987 242.081 217.743 241.54 218.5 241C219.375 240.375 220.25 239.75 220.5 239.5C220.539 239.461 220.581 239.398 220.625 239.315ZM183.995 353.03C183.076 353.736 181.12 354.878 180 355.5L176.5 358L171 361C169.369 362.35 167.128 364.413 164.702 366.852C166.934 364.632 168.981 362.757 170.5 361.5L176 358.5L179.5 356C180.965 355.186 183.862 353.481 183.995 353.03ZM150.552 384.139C150.035 384.578 149.459 384.866 148.888 385.153C148.13 385.533 147.378 385.91 146.775 386.63C147.271 386.213 147.828 385.934 148.388 385.653C149.152 385.27 149.922 384.884 150.552 384.139ZM127.72 418.74L124.5 421.5L124.424 421.636L127.5 419L127.72 418.74ZM106.068 458.864L97 466.5L87 471.5L81 476.5L80.8214 476.732L86.5 472L96.5 467L106 459L106.068 458.864ZM75.7 483.24L71 487L62.5 490.5L54.5 493.5L42 498L31 499C30.8543 499.146 30.6903 499.313 30.5127 499.499L41.5 498.5L54 494L62 491L70.5 487.5L75.5 483.5L75.7 483.24ZM17.9444 517H12H7L0 512.5V513.321L6.5 517.5H11.5H17.5L17.9444 517ZM93.5061 22.824L88.6101 8.20801L83.7861 22.824H93.5061ZM153.709 20.088C152.701 20.664 151.501 20.952 150.109 20.952C149.101 20.952 148.309 20.664 147.733 20.088C147.157 19.464 146.869 18.6 146.869 17.496C146.869 15.864 147.661 14.568 149.245 13.608C150.877 12.6 152.989 12.096 155.581 12.096C158.653 12.096 161.053 12.768 162.781 14.112C164.557 15.456 165.445 17.28 165.445 19.584V32.04C165.445 33.384 165.925 34.056 166.885 34.056C167.797 34.056 168.685 33.696 169.549 32.976L170.125 33.696C168.349 35.664 166.237 36.648 163.789 36.648C162.349 36.648 161.245 36.288 160.477 35.568C159.757 34.848 159.325 33.72 159.181 32.184H158.893C158.125 33.576 157.093 34.68 155.797 35.496C154.549 36.264 153.109 36.648 151.477 36.648C149.653 36.648 148.189 36.096 147.085 34.992C145.981 33.84 145.429 32.352 145.429 30.528C145.429 28.464 146.413 26.832 148.381 25.632C150.349 24.432 153.013 23.832 156.373 23.832C156.997 23.832 157.885 23.88 159.037 23.976V20.376C159.037 18.024 158.749 16.344 158.173 15.336C157.597 14.28 156.661 13.752 155.365 13.752C154.453 13.752 153.733 14.04 153.205 14.616C152.677 15.192 152.413 15.936 152.413 16.848C152.413 18.288 152.845 19.368 153.709 20.088ZM154.789 33.048C157.621 33.048 159.037 30.48 159.037 25.344C156.637 25.344 154.837 25.752 153.637 26.568C152.437 27.336 151.837 28.44 151.837 29.88C151.837 30.84 152.101 31.608 152.629 32.184C153.157 32.76 153.877 33.048 154.789 33.048ZM180.15 36.648C177.846 36.648 176.046 35.904 174.75 34.416C173.502 32.88 172.638 30.432 172.158 27.072L170.646 16.704C170.598 16.32 170.502 16.056 170.358 15.912C170.214 15.768 169.998 15.696 169.71 15.696H167.766L167.55 14.904C168.51 14.04 169.662 13.368 171.006 12.888C172.35 12.36 173.67 12.096 174.966 12.096C175.686 12.096 176.19 12.312 176.478 12.744C176.814 13.176 177.078 14.016 177.27 15.264L179.142 28.224C179.478 30.576 179.862 32.184 180.294 33.048C180.726 33.912 181.374 34.344 182.238 34.344C183.582 34.344 184.638 33.528 185.406 31.896C186.222 30.216 186.63 28.008 186.63 25.272C186.63 22.488 186.27 19.632 185.55 16.704C185.454 16.32 185.358 16.056 185.262 15.912C185.166 15.768 184.95 15.696 184.614 15.696H182.742L182.526 14.904C183.438 14.04 184.566 13.368 185.91 12.888C187.254 12.36 188.598 12.096 189.942 12.096C190.614 12.096 191.118 12.336 191.454 12.816C191.79 13.248 192.03 14.064 192.174 15.264L193.974 27.864C194.358 30.456 194.766 32.184 195.198 33.048C195.678 33.912 196.254 34.344 196.926 34.344C198.222 34.344 199.254 33.384 200.022 31.464C200.838 29.496 201.246 26.952 201.246 23.832C201.246 21.72 201.03 19.896 200.598 18.36C200.214 16.776 199.566 15.384 198.654 14.184L198.078 13.392L198.582 12.816L204.63 12.096C204.774 13.968 204.846 15.624 204.846 17.064C204.846 23.208 203.958 28.008 202.182 31.464C200.454 34.92 197.958 36.648 194.694 36.648C192.726 36.648 191.238 36.144 190.23 35.136C189.222 34.128 188.382 32.28 187.71 29.592C186.75 34.296 184.23 36.648 180.15 36.648ZM220.516 34.272C221.908 34.272 223.132 34.032 224.188 33.552C225.244 33.024 226.276 32.16 227.284 30.96L228.148 31.608C227.044 33.192 225.628 34.44 223.9 35.352C222.22 36.216 220.372 36.648 218.356 36.648C216.148 36.648 214.156 36.12 212.38 35.064C210.652 34.008 209.284 32.568 208.276 30.744C207.268 28.872 206.764 26.76 206.764 24.408C206.764 20.664 207.892 17.688 210.148 15.48C212.452 13.224 215.5 12.096 219.292 12.096C221.98 12.096 224.164 12.744 225.844 14.04C227.572 15.288 228.436 16.92 228.436 18.936C228.436 21.24 227.452 23.088 225.484 24.48C223.564 25.824 220.924 26.496 217.564 26.496C216.22 26.496 214.996 26.4 213.892 26.208C214.132 28.704 214.852 30.672 216.052 32.112C217.252 33.552 218.74 34.272 220.516 34.272ZM218.5 13.824C217.012 13.824 215.836 14.736 214.972 16.56C214.156 18.336 213.748 20.832 213.748 24.048V25.2C214.276 25.2 214.924 25.152 215.692 25.056C217.708 24.816 219.244 24.168 220.3 23.112C221.404 22.008 221.956 20.568 221.956 18.792C221.956 17.352 221.62 16.176 220.948 15.264C220.324 14.304 219.508 13.824 218.5 13.824ZM236.192 16.992C236.192 18.192 236.648 19.176 237.56 19.944C238.52 20.664 239.96 21.48 241.88 22.392C243.464 23.16 244.688 23.832 245.552 24.408C246.416 24.936 247.16 25.656 247.784 26.568C248.456 27.48 248.792 28.56 248.792 29.808C248.792 31.872 247.808 33.528 245.84 34.776C243.92 36.024 241.328 36.648 238.064 36.648C235.616 36.648 233.6 36.216 232.016 35.352C230.432 34.44 229.64 33.264 229.64 31.824C229.64 30.864 230 30.072 230.72 29.448C231.44 28.776 232.328 28.44 233.384 28.44C234.2 28.44 235.016 28.608 235.832 28.944C235.016 29.568 234.608 30.576 234.608 31.968C234.608 32.928 234.944 33.672 235.616 34.2C236.288 34.728 237.104 34.992 238.064 34.992C239.168 34.992 240.104 34.704 240.872 34.128C241.688 33.552 242.096 32.736 242.096 31.68C242.096 30.672 241.688 29.88 240.872 29.304C240.104 28.68 238.88 27.96 237.2 27.144C235.664 26.424 234.416 25.776 233.456 25.2C232.544 24.576 231.752 23.76 231.08 22.752C230.408 21.744 230.072 20.52 230.072 19.08C230.072 16.92 230.984 15.216 232.808 13.968C234.632 12.72 236.936 12.096 239.72 12.096C242.168 12.096 244.16 12.552 245.696 13.464C247.28 14.376 248.072 15.552 248.072 16.992C248.072 18.096 247.736 18.912 247.064 19.44C246.392 19.968 245.528 20.232 244.472 20.232C243.464 20.232 242.576 20.016 241.808 19.584C242.672 18.768 243.104 17.736 243.104 16.488C243.104 15.672 242.792 15.024 242.168 14.544C241.544 14.016 240.728 13.752 239.72 13.752C238.616 13.752 237.752 14.064 237.128 14.688C236.504 15.312 236.192 16.08 236.192 16.992ZM250.099 24.408C250.099 20.616 251.179 17.616 253.339 15.408C255.547 13.2 258.523 12.096 262.267 12.096C266.011 12.096 268.987 13.224 271.195 15.48C273.403 17.688 274.507 20.664 274.507 24.408C274.507 28.152 273.403 31.128 271.195 33.336C268.987 35.544 266.011 36.648 262.267 36.648C258.523 36.648 255.547 35.544 253.339 33.336C251.179 31.128 250.099 28.152 250.099 24.408ZM267.235 24.552C267.235 21.336 266.779 18.72 265.867 16.704C264.955 14.64 263.803 13.608 262.411 13.608C260.875 13.608 259.627 14.616 258.667 16.632C257.707 18.6 257.227 21.192 257.227 24.408C257.227 27.672 257.659 30.264 258.523 32.184C259.435 34.104 260.635 35.064 262.123 35.064C263.611 35.064 264.835 34.104 265.795 32.184C266.755 30.216 267.235 27.672 267.235 24.552ZM299.33 20.016C299.282 17.28 298.802 15.288 297.89 14.04C296.978 12.744 295.538 12.096 293.57 12.096C291.698 12.096 290.018 12.864 288.53 14.4C287.042 15.936 285.986 17.808 285.362 20.016V14.112C285.362 13.632 285.17 13.272 284.786 13.032C284.45 12.744 283.97 12.6 283.346 12.6C281.906 12.6 280.466 12.864 279.026 13.392C277.586 13.92 276.386 14.592 275.426 15.408L275.642 16.128H277.946C278.57 16.128 278.882 16.488 278.882 17.208V31.248C278.882 32.448 278.762 33.264 278.522 33.696C278.282 34.08 277.778 34.368 277.01 34.56L276.002 34.776L276.434 36H286.874L287.45 35.28L286.874 34.56C286.298 33.744 285.89 32.904 285.65 32.04C285.458 31.176 285.362 30 285.362 28.512C285.362 25.152 285.794 22.2 286.658 19.656C287.522 17.064 288.722 15.768 290.258 15.768C292.082 15.768 292.994 17.16 292.994 19.944V36H300.986L301.562 35.28L300.986 34.56C300.458 33.744 300.074 32.904 299.834 32.04C299.642 31.176 299.522 30 299.474 28.512C299.474 25.152 299.906 22.2 300.77 19.656C301.634 17.064 302.834 15.768 304.37 15.768C306.194 15.768 307.106 17.16 307.106 19.944V30.312C307.106 32.664 307.466 34.32 308.186 35.28C308.906 36.192 310.154 36.648 311.93 36.648C314.33 36.648 316.418 35.664 318.194 33.696L317.618 32.976C316.754 33.696 315.866 34.056 314.954 34.056C314.042 34.056 313.586 33.336 313.586 31.896V20.52C313.586 17.64 313.106 15.528 312.146 14.184C311.234 12.792 309.746 12.096 307.682 12.096C305.954 12.096 304.322 12.84 302.786 14.328C301.25 15.816 300.146 17.712 299.474 20.016H299.33ZM331.514 34.272C332.906 34.272 334.13 34.032 335.186 33.552C336.242 33.024 337.274 32.16 338.282 30.96L339.146 31.608C338.042 33.192 336.626 34.44 334.898 35.352C333.218 36.216 331.37 36.648 329.354 36.648C327.146 36.648 325.154 36.12 323.378 35.064C321.65 34.008 320.282 32.568 319.274 30.744C318.266 28.872 317.762 26.76 317.762 24.408C317.762 20.664 318.89 17.688 321.146 15.48C323.45 13.224 326.498 12.096 330.29 12.096C332.978 12.096 335.162 12.744 336.842 14.04C338.57 15.288 339.434 16.92 339.434 18.936C339.434 21.24 338.45 23.088 336.482 24.48C334.562 25.824 331.922 26.496 328.562 26.496C327.218 26.496 325.994 26.4 324.89 26.208C325.13 28.704 325.85 30.672 327.05 32.112C328.25 33.552 329.738 34.272 331.514 34.272ZM329.498 13.824C328.01 13.824 326.834 14.736 325.97 16.56C325.154 18.336 324.746 20.832 324.746 24.048V25.2C325.274 25.2 325.922 25.152 326.69 25.056C328.706 24.816 330.242 24.168 331.298 23.112C332.402 22.008 332.954 20.568 332.954 18.792C332.954 17.352 332.618 16.176 331.946 15.264C331.322 14.304 330.506 13.824 329.498 13.824ZM356.764 16.992C356.764 18.192 357.22 19.176 358.132 19.944C359.092 20.664 360.532 21.48 362.452 22.392C364.036 23.16 365.26 23.832 366.124 24.408C366.988 24.936 367.732 25.656 368.356 26.568C369.028 27.48 369.364 28.56 369.364 29.808C369.364 31.872 368.38 33.528 366.412 34.776C364.492 36.024 361.9 36.648 358.636 36.648C356.188 36.648 354.172 36.216 352.588 35.352C351.004 34.44 350.212 33.264 350.212 31.824C350.212 30.864 350.572 30.072 351.292 29.448C352.012 28.776 352.9 28.44 353.956 28.44C354.772 28.44 355.588 28.608 356.404 28.944C355.588 29.568 355.18 30.576 355.18 31.968C355.18 32.928 355.516 33.672 356.188 34.2C356.86 34.728 357.676 34.992 358.636 34.992C359.74 34.992 360.676 34.704 361.444 34.128C362.26 33.552 362.668 32.736 362.668 31.68C362.668 30.672 362.26 29.88 361.444 29.304C360.676 28.68 359.452 27.96 357.772 27.144C356.236 26.424 354.988 25.776 354.028 25.2C353.116 24.576 352.324 23.76 351.652 22.752C350.98 21.744 350.644 20.52 350.644 19.08C350.644 16.92 351.556 15.216 353.38 13.968C355.204 12.72 357.508 12.096 360.292 12.096C362.74 12.096 364.732 12.552 366.268 13.464C367.852 14.376 368.644 15.552 368.644 16.992C368.644 18.096 368.308 18.912 367.636 19.44C366.964 19.968 366.1 20.232 365.044 20.232C364.036 20.232 363.148 20.016 362.38 19.584C363.244 18.768 363.676 17.736 363.676 16.488C363.676 15.672 363.364 15.024 362.74 14.544C362.116 14.016 361.3 13.752 360.292 13.752C359.188 13.752 358.324 14.064 357.7 14.688C357.076 15.312 356.764 16.08 356.764 16.992ZM379.239 31.896C379.239 33.336 379.695 34.056 380.607 34.056C381.519 34.056 382.407 33.696 383.271 32.976L383.358 33.0851C383.064 32.3224 382.916 31.47 382.916 30.528C382.916 28.464 383.9 26.832 385.868 25.632C387.836 24.432 390.5 23.832 393.86 23.832C394.484 23.832 395.372 23.88 396.524 23.976V20.376C396.524 18.024 396.236 16.344 395.66 15.336C395.084 14.28 394.148 13.752 392.852 13.752C391.94 13.752 391.22 14.04 390.692 14.616C390.164 15.192 389.9 15.936 389.9 16.848C389.9 18.288 390.332 19.368 391.196 20.088C390.188 20.664 388.988 20.952 387.596 20.952C386.588 20.952 385.796 20.664 385.22 20.088C384.644 19.464 384.356 18.6 384.356 17.496C384.356 15.864 385.148 14.568 386.732 13.608C388.364 12.6 390.476 12.096 393.068 12.096C396.14 12.096 398.54 12.768 400.268 14.112C402.044 15.456 402.932 17.28 402.932 19.584V32.04C402.932 33.384 403.412 34.056 404.372 34.056C405.284 34.056 406.172 33.696 407.036 32.976L407.612 33.696C405.836 35.664 403.724 36.648 401.276 36.648C399.836 36.648 398.732 36.288 397.964 35.568C397.244 34.848 396.812 33.72 396.668 32.184H396.38C395.612 33.576 394.58 34.68 393.284 35.496C392.036 36.264 390.596 36.648 388.964 36.648C387.14 36.648 385.676 36.096 384.572 34.992C384.236 34.641 383.951 34.2587 383.717 33.8453C382.059 35.7137 380.015 36.648 377.583 36.648C375.903 36.648 374.679 36.264 373.911 35.496C373.143 34.68 372.759 33.408 372.759 31.68V5.25601C372.759 4.58398 372.447 4.24799 371.823 4.24799H369.519L369.303 3.52798C370.215 2.664 371.391 1.992 372.831 1.51199C374.319 0.984009 375.783 0.720001 377.223 0.720001C377.847 0.720001 378.327 0.864014 378.663 1.15201C379.047 1.392 379.239 1.75198 379.239 2.23199V31.896ZM392.276 33.048C395.108 33.048 396.524 30.48 396.524 25.344C394.124 25.344 392.324 25.752 391.124 26.568C389.924 27.336 389.324 28.44 389.324 29.88C389.324 30.84 389.588 31.608 390.116 32.184C390.644 32.76 391.364 33.048 392.276 33.048ZM427.933 18.432C427.933 20.016 427.453 21.264 426.493 22.176C425.533 23.088 424.357 23.544 422.965 23.544C421.861 23.544 420.853 23.256 419.941 22.68C420.997 21.72 421.525 20.376 421.525 18.648C421.525 17.256 421.237 16.128 420.661 15.264C420.085 14.352 419.245 13.896 418.141 13.896C416.893 13.896 415.861 14.88 415.045 16.848C414.277 18.768 413.893 21.288 413.893 24.408C413.893 27.384 414.445 29.784 415.549 31.608C416.701 33.384 418.309 34.272 420.373 34.272C421.813 34.272 423.037 34.008 424.045 33.48C425.101 32.952 426.085 32.184 426.997 31.176L427.861 31.752C426.853 33.192 425.533 34.368 423.901 35.28C422.269 36.192 420.373 36.648 418.213 36.648C414.853 36.648 412.093 35.52 409.933 33.264C407.773 31.008 406.693 28.104 406.693 24.552C406.693 20.76 407.821 17.736 410.077 15.48C412.333 13.224 415.333 12.096 419.077 12.096C421.717 12.096 423.853 12.696 425.485 13.896C427.117 15.048 427.933 16.56 427.933 18.432ZM455.145 33.84C453.465 35.712 451.377 36.648 448.881 36.648C447.345 36.648 446.121 36.312 445.209 35.64C444.345 34.968 443.673 33.84 443.193 32.256L440.961 25.92C440.673 25.104 440.289 24.48 439.809 24.048C439.377 23.616 438.777 23.304 438.009 23.112V28.512C438.009 30 438.105 31.176 438.297 32.04C438.537 32.904 438.921 33.744 439.449 34.56L440.025 35.28L439.449 36H429.009L428.577 34.776L429.585 34.56C430.353 34.368 430.857 34.08 431.097 33.696C431.337 33.264 431.457 32.448 431.457 31.248V5.25601C431.457 4.58398 431.145 4.24799 430.521 4.24799H428.289L428.001 3.52798C428.913 2.664 430.089 1.992 431.529 1.51199C433.017 0.984009 434.481 0.720001 435.921 0.720001C436.545 0.720001 437.049 0.864014 437.433 1.15201C437.817 1.392 438.009 1.75198 438.009 2.23199V21.744L442.329 18.576C443.337 17.856 444.033 17.28 444.417 16.848C444.801 16.416 444.993 15.96 444.993 15.48C444.993 14.808 444.705 14.232 444.129 13.752L443.553 13.32L444.129 12.6H452.841L453.273 13.824C452.073 14.112 450.729 14.784 449.241 15.84L440.745 22.032C442.857 22.272 444.489 22.776 445.641 23.544C446.793 24.312 447.633 25.416 448.161 26.856L450.177 32.616C450.513 33.672 451.185 34.2 452.193 34.2C452.913 34.2 453.705 33.84 454.569 33.12L455.145 33.84ZM461.901 31.896C461.901 33.336 462.357 34.056 463.269 34.056C464.181 34.056 465.069 33.696 465.933 32.976L466.509 33.696C464.829 35.664 462.741 36.648 460.245 36.648C458.565 36.648 457.341 36.264 456.573 35.496C455.805 34.68 455.421 33.408 455.421 31.68V5.25601C455.421 4.58398 455.109 4.24799 454.485 4.24799H452.181L451.965 3.52798C452.877 2.664 454.053 1.992 455.493 1.51199C456.981 0.984009 458.445 0.720001 459.885 0.720001C460.509 0.720001 460.989 0.864014 461.325 1.15201C461.709 1.392 461.901 1.75198 461.901 2.23199V31.896ZM474.651 31.896C474.651 33.336 475.107 34.056 476.018 34.056C476.93 34.056 477.818 33.696 478.682 32.976L479.258 33.696C477.482 35.664 475.394 36.648 472.995 36.648C471.266 36.648 470.018 36.216 469.25 35.352C468.482 34.44 468.099 32.976 468.099 30.96V16.704C468.099 16.032 467.786 15.696 467.162 15.696H464.93L464.714 14.904C465.674 14.088 466.875 13.416 468.315 12.888C469.754 12.36 471.194 12.096 472.634 12.096C473.211 12.096 473.69 12.24 474.074 12.528C474.458 12.816 474.651 13.2 474.651 13.68V31.896ZM467.378 5.18399C467.378 4.32001 467.858 3.35999 468.818 2.30399C469.779 1.24799 470.667 0.720001 471.482 0.720001C472.346 0.720001 473.258 1.24799 474.219 2.30399C475.227 3.35999 475.73 4.32001 475.73 5.18399C475.73 6.09601 475.227 7.07999 474.219 8.13599C473.258 9.14401 472.346 9.64801 471.482 9.64801C470.667 9.64801 469.779 9.14401 468.818 8.13599C467.858 7.07999 467.378 6.09601 467.378 5.18399ZM503.372 31.896C503.372 33.336 503.828 34.056 504.74 34.056C505.652 34.056 506.54 33.696 507.404 32.976L507.98 33.696C506.204 35.664 504.116 36.648 501.716 36.648C499.988 36.648 498.74 36.216 497.972 35.352C497.252 34.44 496.892 32.976 496.892 30.96V19.944C496.892 17.16 496.004 15.768 494.228 15.768C492.5 15.768 491.084 16.944 489.98 19.296C488.924 21.648 488.396 24.72 488.396 28.512C488.396 29.952 488.516 31.128 488.756 32.04C488.996 32.904 489.38 33.744 489.908 34.56L490.484 35.28L489.908 36H479.468L479.036 34.776L480.044 34.56C480.812 34.368 481.316 34.08 481.556 33.696C481.796 33.264 481.916 32.448 481.916 31.248V17.208C481.916 16.296 481.604 15.84 480.98 15.84H478.676L478.46 15.048C479.42 14.232 480.62 13.56 482.06 13.032C483.5 12.504 484.94 12.24 486.38 12.24C487.004 12.24 487.484 12.384 487.82 12.672C488.204 12.96 488.396 13.344 488.396 13.824V20.016C489.068 17.76 490.268 15.888 491.996 14.4C493.724 12.864 495.548 12.096 497.468 12.096C499.532 12.096 501.02 12.768 501.932 14.112C502.892 15.456 503.372 17.592 503.372 20.52V31.896ZM521.33 34.272C522.722 34.272 523.946 34.032 525.002 33.552C526.058 33.024 527.09 32.16 528.098 30.96L528.962 31.608C527.858 33.192 526.442 34.44 524.714 35.352C523.034 36.216 521.186 36.648 519.17 36.648C516.962 36.648 514.97 36.12 513.194 35.064C511.466 34.008 510.098 32.568 509.09 30.744C508.082 28.872 507.578 26.76 507.578 24.408C507.578 20.664 508.706 17.688 510.962 15.48C513.266 13.224 516.314 12.096 520.106 12.096C522.794 12.096 524.978 12.744 526.658 14.04C528.386 15.288 529.25 16.92 529.25 18.936C529.25 21.24 528.266 23.088 526.298 24.48C524.378 25.824 521.738 26.496 518.378 26.496C517.034 26.496 515.81 26.4 514.706 26.208C514.946 28.704 515.666 30.672 516.866 32.112C518.066 33.552 519.554 34.272 521.33 34.272ZM519.314 13.824C517.826 13.824 516.65 14.736 515.786 16.56C514.97 18.336 514.562 20.832 514.562 24.048V25.2C515.09 25.2 515.738 25.152 516.506 25.056C518.522 24.816 520.058 24.168 521.114 23.112C522.218 22.008 522.77 20.568 522.77 18.792C522.77 17.352 522.434 16.176 521.762 15.264C521.138 14.304 520.322 13.824 519.314 13.824ZM208.864 71.552C208.864 68.336 208.408 65.72 207.496 63.704C206.584 61.64 205.432 60.608 204.04 60.608C202.504 60.608 201.256 61.616 200.296 63.632C199.336 65.6 198.856 68.192 198.856 71.408C198.856 74.672 199.288 77.264 200.152 79.184C201.064 81.104 202.264 82.064 203.752 82.064C205.24 82.064 206.464 81.104 207.424 79.184C208.384 77.216 208.864 74.672 208.864 71.552ZM240.959 67.016C240.911 64.28 240.431 62.288 239.519 61.04C238.607 59.744 237.167 59.096 235.199 59.096C233.327 59.096 231.647 59.864 230.159 61.4C228.671 62.936 227.615 64.808 226.991 67.016V61.112C226.991 60.632 226.799 60.272 226.415 60.032C226.079 59.744 225.599 59.6 224.975 59.6C223.535 59.6 222.095 59.864 220.655 60.392C219.215 60.92 218.015 61.592 217.055 62.408L217.271 63.128H219.575C220.199 63.128 220.511 63.488 220.511 64.208V78.248C220.511 79.448 220.391 80.264 220.151 80.696C219.911 81.08 219.407 81.368 218.639 81.56L217.631 81.776L218.063 83H228.503L229.079 82.28L228.503 81.56C227.927 80.744 227.519 79.904 227.279 79.04C227.087 78.176 226.991 77 226.991 75.512C226.991 72.152 227.423 69.2 228.287 66.656C229.151 64.064 230.351 62.768 231.887 62.768C233.711 62.768 234.623 64.16 234.623 66.944V83H242.615L243.191 82.28L242.615 81.56C242.087 80.744 241.703 79.904 241.463 79.04C241.271 78.176 241.151 77 241.103 75.512C241.103 72.152 241.535 69.2 242.399 66.656C243.263 64.064 244.463 62.768 245.999 62.768C247.823 62.768 248.735 64.16 248.735 66.944V77.312C248.735 79.664 249.095 81.32 249.815 82.28C250.535 83.192 251.783 83.648 253.559 83.648C255.959 83.648 258.047 82.664 259.823 80.696L259.247 79.976C258.383 80.696 257.495 81.056 256.583 81.056C255.671 81.056 255.215 80.336 255.215 78.896V67.52C255.215 64.64 254.735 62.528 253.775 61.184C252.863 59.792 251.375 59.096 249.311 59.096C247.583 59.096 245.951 59.84 244.415 61.328C242.879 62.816 241.775 64.712 241.103 67.016H240.959ZM283.439 67.016C283.391 64.28 282.911 62.288 281.999 61.04C281.087 59.744 279.647 59.096 277.679 59.096C275.807 59.096 274.127 59.864 272.639 61.4C271.151 62.936 270.095 64.808 269.471 67.016V61.112C269.471 60.632 269.279 60.272 268.895 60.032C268.559 59.744 268.079 59.6 267.455 59.6C266.015 59.6 264.575 59.864 263.135 60.392C261.695 60.92 260.495 61.592 259.535 62.408L259.751 63.128H262.055C262.679 63.128 262.991 63.488 262.991 64.208V78.248C262.991 79.448 262.871 80.264 262.631 80.696C262.391 81.08 261.887 81.368 261.119 81.56L260.111 81.776L260.543 83H270.983L271.559 82.28L270.983 81.56C270.407 80.744 269.999 79.904 269.759 79.04C269.567 78.176 269.471 77 269.471 75.512C269.471 72.152 269.903 69.2 270.767 66.656C271.631 64.064 272.831 62.768 274.367 62.768C276.191 62.768 277.103 64.16 277.103 66.944V83H285.095L285.671 82.28L285.095 81.56C284.567 80.744 284.183 79.904 283.943 79.04C283.751 78.176 283.631 77 283.583 75.512C283.583 72.152 284.015 69.2 284.879 66.656C285.743 64.064 286.943 62.768 288.479 62.768C290.303 62.768 291.215 64.16 291.215 66.944V77.312C291.215 79.664 291.575 81.32 292.295 82.28C293.015 83.192 294.263 83.648 296.039 83.648C298.439 83.648 300.527 82.664 302.303 80.696L301.727 79.976C300.863 80.696 299.975 81.056 299.063 81.056C298.151 81.056 297.695 80.336 297.695 78.896V67.52C297.695 64.64 297.215 62.528 296.255 61.184C295.343 59.792 293.855 59.096 291.791 59.096C290.063 59.096 288.431 59.84 286.895 61.328C285.359 62.816 284.255 64.712 283.583 67.016H283.439ZM319.511 76.448C318.839 78.56 317.663 80.288 315.983 81.632C314.351 82.976 312.599 83.648 310.727 83.648C308.615 83.648 307.055 82.976 306.047 81.632C305.039 80.288 304.535 78.224 304.535 75.44V63.704C304.535 63.032 304.223 62.696 303.599 62.696H301.367L301.151 61.904C302.111 61.088 303.311 60.416 304.751 59.888C306.191 59.36 307.607 59.096 308.999 59.096C309.623 59.096 310.103 59.24 310.439 59.528C310.823 59.816 311.015 60.2 311.015 60.68V75.08C311.015 76.712 311.255 77.984 311.735 78.896C312.215 79.76 312.887 80.192 313.751 80.192C315.527 80.192 316.943 79.112 317.999 76.952C319.103 74.744 319.655 71.888 319.655 68.384C319.655 66.512 319.511 65.072 319.223 64.064C318.983 63.008 318.527 62.096 317.855 61.328L317.207 60.536L317.783 59.888L326.063 59.24V78.896C326.063 80.336 326.495 81.056 327.359 81.056C328.271 81.056 329.159 80.696 330.023 79.976L330.599 80.696C328.919 82.664 326.831 83.648 324.335 83.648C322.511 83.648 321.239 83.12 320.519 82.064C319.847 81.008 319.511 79.136 319.511 76.448ZM355.274 78.896C355.274 80.336 355.731 81.056 356.643 81.056C357.555 81.056 358.443 80.696 359.307 79.976L359.883 80.696C358.107 82.664 356.018 83.648 353.619 83.648C351.891 83.648 350.643 83.216 349.875 82.352C349.154 81.44 348.794 79.976 348.794 77.96V66.944C348.794 64.16 347.906 62.768 346.13 62.768C344.403 62.768 342.987 63.944 341.883 66.296C340.826 68.648 340.299 71.72 340.299 75.512C340.299 76.952 340.419 78.128 340.659 79.04C340.898 79.904 341.282 80.744 341.81 81.56L342.386 82.28L341.81 83H331.37L330.938 81.776L331.946 81.56C332.714 81.368 333.219 81.08 333.458 80.696C333.698 80.264 333.818 79.448 333.818 78.248V64.208C333.818 63.296 333.507 62.84 332.883 62.84H330.578L330.362 62.048C331.323 61.232 332.523 60.56 333.963 60.032C335.403 59.504 336.843 59.24 338.282 59.24C338.906 59.24 339.386 59.384 339.722 59.672C340.107 59.96 340.299 60.344 340.299 60.824V67.016C340.971 64.76 342.17 62.888 343.898 61.4C345.627 59.864 347.451 59.096 349.37 59.096C351.435 59.096 352.922 59.768 353.834 61.112C354.794 62.456 355.274 64.592 355.274 67.52V78.896ZM368.552 78.896C368.552 80.336 369.008 81.056 369.92 81.056C370.832 81.056 371.72 80.696 372.584 79.976L373.16 80.696C371.384 82.664 369.296 83.648 366.896 83.648C365.168 83.648 363.92 83.216 363.152 82.352C362.384 81.44 362 79.976 362 77.96V63.704C362 63.032 361.688 62.696 361.064 62.696H358.832L358.616 61.904C359.576 61.088 360.776 60.416 362.216 59.888C363.656 59.36 365.096 59.096 366.536 59.096C367.112 59.096 367.592 59.24 367.976 59.528C368.36 59.816 368.552 60.2 368.552 60.68V78.896ZM361.28 52.184C361.28 51.32 361.76 50.36 362.72 49.304C363.68 48.248 364.568 47.72 365.384 47.72C366.248 47.72 367.16 48.248 368.12 49.304C369.128 50.36 369.632 51.32 369.632 52.184C369.632 53.096 369.128 54.08 368.12 55.136C367.16 56.144 366.248 56.648 365.384 56.648C364.568 56.648 363.68 56.144 362.72 55.136C361.76 54.08 361.28 53.096 361.28 52.184ZM380.21 83.648C378.242 83.648 376.826 83.216 375.962 82.352C375.098 81.44 374.666 79.976 374.666 77.96V62.696H371.066C371.066 61.88 371.114 61.352 371.21 61.112C371.306 60.872 371.594 60.68 372.074 60.536C373.658 60.104 374.906 59.432 375.818 58.52C376.73 57.608 377.474 56.288 378.05 54.56C378.194 54.032 378.434 53.72 378.77 53.624C379.106 53.48 379.922 53.408 381.218 53.408V59.888H387.122C387.122 60.3556 387.068 60.7963 386.96 61.21C387.72 60.6986 388.621 60.258 389.664 59.888C391.151 59.36 392.568 59.096 393.911 59.096C394.536 59.096 395.016 59.24 395.352 59.528C395.735 59.816 395.927 60.2 395.927 60.68V75.224C395.927 77.912 396.768 79.256 398.448 79.256C400.08 79.256 401.399 78.272 402.408 76.304C403.416 74.336 403.919 71.72 403.919 68.456C403.919 66.728 403.776 65.312 403.487 64.208C403.2 63.104 402.744 62.144 402.12 61.328L401.544 60.536L402.047 59.888L410.328 59.24V83C410.328 86.792 409.224 89.72 407.016 91.784C404.856 93.896 401.831 94.952 397.943 94.952C395.544 94.952 393.599 94.496 392.112 93.584C390.623 92.672 389.88 91.472 389.88 89.984C389.88 88.688 390.263 87.632 391.031 86.816C391.799 86.048 392.807 85.664 394.055 85.664C394.968 85.664 395.856 85.856 396.719 86.24C395.856 87.104 395.424 88.28 395.424 89.768C395.424 90.824 395.735 91.688 396.359 92.36C397.031 93.032 397.872 93.368 398.88 93.368C402.24 93.368 403.919 90.632 403.919 85.16V76.016C403.296 77.84 402.192 79.352 400.607 80.552C399.072 81.704 397.416 82.28 395.64 82.28C393.528 82.28 391.968 81.632 390.959 80.336C389.951 79.04 389.448 77.072 389.448 74.432V63.704C389.448 63.032 389.135 62.696 388.511 62.696H386.279L386.236 62.5363C386.174 62.5944 386.109 62.6476 386.042 62.696H381.218V78.896C381.218 80.336 381.818 81.056 383.018 81.056C383.546 81.056 384.122 80.888 384.746 80.552C385.418 80.216 386.018 79.76 386.546 79.184L387.122 79.904C385.058 82.4 382.754 83.648 380.21 83.648ZM427.479 47.36C428.343 47.36 429.159 47.48 429.927 47.72C430.695 47.96 431.271 48.272 431.655 48.656C431.655 50.384 431.223 54.152 430.359 59.96C429.543 65.72 428.799 70.088 428.127 73.064H426.903C426.231 70.04 425.463 65.648 424.599 59.888C423.735 54.128 423.303 50.384 423.303 48.656C423.687 48.272 424.263 47.96 425.031 47.72C425.799 47.48 426.615 47.36 427.479 47.36ZM423.807 79.688C423.807 78.92 424.239 78.08 425.103 77.168C425.967 76.208 426.759 75.728 427.479 75.728C428.247 75.728 429.087 76.208 429.999 77.168C430.911 78.08 431.367 78.92 431.367 79.688C431.367 80.504 430.911 81.368 429.999 82.28C429.087 83.192 428.247 83.648 427.479 83.648C426.759 83.648 425.967 83.192 425.103 82.28C424.239 81.32 423.807 80.456 423.807 79.688Z" fill="#2C1F06"/>
</svg>
