<svg width="347" height="426" viewBox="0 0 347 426" fill="none" xmlns="http://www.w3.org/2000/svg">
<g opacity="0.91">
<rect x="260.585" y="203" width="181.262" height="368.522" rx="90.6311" transform="rotate(45 260.585 203)" fill="#E99B06"/>
<rect x="260.585" y="203" width="181.262" height="368.522" rx="90.6311" transform="rotate(45 260.585 203)" fill="url(#paint0_linear)" fill-opacity="0.7"/>
</g>
<g opacity="0.64">
<rect x="403.03" width="272" height="553" rx="136" transform="rotate(45 403.03 0)" fill="#E99B06"/>
<rect x="403.03" width="272" height="553" rx="136" transform="rotate(45 403.03 0)" fill="url(#paint1_linear)" fill-opacity="0.7"/>
</g>
<g opacity="0.64">
<rect x="285" y="270" width="180.856" height="367.696" rx="90.4278" transform="rotate(45 285 270)" fill="#E99B06"/>
<rect x="285" y="270" width="180.856" height="367.696" rx="90.4278" transform="rotate(45 285 270)" fill="url(#paint2_linear)" fill-opacity="0.7"/>
</g>
<defs>
<linearGradient id="paint0_linear" x1="351.216" y1="203" x2="351.216" y2="571.522" gradientUnits="userSpaceOnUse">
<stop stop-color="white"/>
<stop offset="1" stop-color="white" stop-opacity="0"/>
</linearGradient>
<linearGradient id="paint1_linear" x1="539.03" y1="0" x2="539.03" y2="553" gradientUnits="userSpaceOnUse">
<stop stop-color="white"/>
<stop offset="1" stop-color="white" stop-opacity="0"/>
</linearGradient>
<linearGradient id="paint2_linear" x1="375.428" y1="270" x2="375.428" y2="637.696" gradientUnits="userSpaceOnUse">
<stop stop-color="white"/>
<stop offset="1" stop-color="white" stop-opacity="0"/>
</linearGradient>
</defs>
</svg>
