<svg width="35" height="30" viewBox="0 0 35 30" fill="none" xmlns="http://www.w3.org/2000/svg">
<path d="M33.5227 12.9928L26.658 7.71733V2.21985C26.658 1.54663 26.1102 1 25.4355 1C24.7609 1 24.2131 1.54663 24.2131 2.21985V5.83865L18.245 1.25318C17.8058 0.915608 17.1936 0.915608 16.7535 1.25318L1.4763 12.9928C0.94196 13.4033 0.842012 14.169 1.25382 14.7022C1.66562 15.2359 2.43301 15.3352 2.96783 14.9247L4.30992 13.8938V27.7806C4.30992 28.4529 4.85772 29 5.53237 29H29.3138C29.9875 29 30.5367 28.4529 30.5367 27.7806V13.7758L32.0316 14.9247C32.2541 15.0954 32.516 15.1784 32.7759 15.1784C33.1426 15.1784 33.5049 15.0139 33.7461 14.7022C34.1579 14.1685 34.0584 13.4033 33.5227 12.9928ZM17.4997 25.4853C13.0564 25.4853 9.45389 21.89 9.45389 17.457C9.45389 13.0225 13.0564 9.42771 17.4997 9.42771C21.9441 9.42771 25.546 13.0225 25.546 17.457C25.546 21.89 21.9441 25.4853 17.4997 25.4853Z" fill="#4C360B"/>
<path d="M18.3102 16.4121C17.0762 15.9475 16.5674 15.643 16.5674 15.164C16.5674 14.7583 16.8725 14.3527 17.8172 14.3527C18.8623 14.3527 19.5307 14.6859 19.9094 14.8451L20.3313 13.2076C19.8517 12.976 19.1987 12.7732 18.2237 12.7296V11.4541H16.8004V12.8312C15.2464 13.1352 14.3464 14.1359 14.3464 15.4114C14.3464 16.8178 15.4059 17.5418 16.9609 18.064C18.0353 18.427 18.5015 18.7732 18.5015 19.3246C18.5015 19.9048 17.934 20.2237 17.1075 20.2237C16.1632 20.2237 15.306 19.9187 14.6957 19.5864L14.2604 21.2815C14.812 21.6003 15.7562 21.8612 16.7298 21.9053V23.2829H18.1536V21.8041C19.8243 21.5145 20.7392 20.4126 20.7392 19.1218C20.7364 17.8171 20.0396 17.0201 18.3102 16.4121Z" fill="#4C360B"/>
<path d="M8.51704 19.1495L9.71104 24.2802C11.0642 24.9798 13.9139 26.3791 14.487 26.3791H22.845C23.5614 26.3791 27.1434 21.9481 27.3822 21.2484C27.621 20.5488 27.1434 12.6197 26.9046 12.3864C26.6658 12.1532 21.651 7.48902 21.4122 7.48902H13.7706C13.3885 7.48902 10.109 12.3087 8.51704 14.7185V19.1495Z" fill="#4C360B"/>
<path d="M14.487 26.3791C13.9139 26.3791 11.0642 24.9798 9.71104 24.2802L8.51704 19.1495V14.7185C10.109 12.3087 13.3885 7.48902 13.7706 7.48902M14.487 26.3791C15.2034 26.3791 22.1286 26.3791 22.845 26.3791M14.487 26.3791H22.845M22.845 26.3791C23.5614 26.3791 27.1434 21.9481 27.3822 21.2484C27.621 20.5488 27.1434 12.6197 26.9046 12.3864C26.6658 12.1532 21.651 7.48902 21.4122 7.48902M21.4122 7.48902C21.1734 7.48902 14.2482 7.48902 13.7706 7.48902M21.4122 7.48902H13.7706M33.5227 12.9928L26.658 7.71733V2.21985C26.658 1.54663 26.1102 1 25.4355 1C24.7609 1 24.2131 1.54663 24.2131 2.21985V5.83865L18.245 1.25318C17.8058 0.915608 17.1936 0.915608 16.7535 1.25318L1.4763 12.9928C0.94196 13.4033 0.842012 14.169 1.25382 14.7022C1.66562 15.2359 2.43301 15.3352 2.96783 14.9247L4.30992 13.8938V27.7806C4.30992 28.4529 4.85772 29 5.53237 29H29.3138C29.9875 29 30.5367 28.4529 30.5367 27.7806V13.7758L32.0316 14.9247C32.2541 15.0954 32.516 15.1784 32.7759 15.1784C33.1426 15.1784 33.5049 15.0139 33.7461 14.7022C34.1579 14.1685 34.0584 13.4033 33.5227 12.9928ZM17.4997 25.4853C13.0564 25.4853 9.45389 21.89 9.45389 17.457C9.45389 13.0225 13.0564 9.42771 17.4997 9.42771C21.9441 9.42771 25.546 13.0225 25.546 17.457C25.546 21.89 21.9441 25.4853 17.4997 25.4853ZM18.3102 16.4121C17.0762 15.9475 16.5674 15.643 16.5674 15.164C16.5674 14.7583 16.8725 14.3527 17.8172 14.3527C18.8623 14.3527 19.5307 14.6859 19.9094 14.8451L20.3313 13.2076C19.8517 12.976 19.1987 12.7732 18.2237 12.7296V11.4541H16.8004V12.8312C15.2464 13.1352 14.3464 14.1359 14.3464 15.4114C14.3464 16.8178 15.4059 17.5418 16.9609 18.064C18.0353 18.427 18.5015 18.7732 18.5015 19.3246C18.5015 19.9048 17.934 20.2237 17.1075 20.2237C16.1632 20.2237 15.306 19.9187 14.6957 19.5864L14.2604 21.2815C14.812 21.6003 15.7562 21.8612 16.7298 21.9053V23.2829H18.1536V21.8041C19.8243 21.5145 20.7392 20.4126 20.7392 19.1218C20.7364 17.8171 20.0396 17.0201 18.3102 16.4121Z" stroke="#4C360B"/>
</svg>
