<svg width="16" height="16" viewBox="0 0 16 16" fill="none" xmlns="http://www.w3.org/2000/svg">
<path d="M13.3333 5.33337H11.3333V4.14003C11.3333 2.40003 10.06 0.846699 8.32663 0.680032C6.33996 0.493365 4.66663 2.05337 4.66663 4.00003V5.33337H2.66663V14.6667H13.3333V5.33337ZM7.99996 11.3334C7.26663 11.3334 6.66663 10.7334 6.66663 10C6.66663 9.2667 7.26663 8.6667 7.99996 8.6667C8.73329 8.6667 9.33329 9.2667 9.33329 10C9.33329 10.7334 8.73329 11.3334 7.99996 11.3334ZM5.99996 5.33337V4.00003C5.99996 2.89337 6.89329 2.00003 7.99996 2.00003C9.10663 2.00003 9.99996 2.89337 9.99996 4.00003V5.33337H5.99996Z" fill="#B79F73"/>
</svg>
