<svg width="200" height="193" viewBox="0 0 200 193" fill="none" xmlns="http://www.w3.org/2000/svg">
<path fill-rule="evenodd" clip-rule="evenodd" d="M165.533 175.537C186.648 157.202 200 130.16 200 100C200 44.7715 155.228 0 100 0C44.7715 0 0 44.7715 0 100C0 141.421 25.184 176.961 61.0755 192.142C49.6435 187.306 39.2979 180.405 30.5063 171.907C41.7803 155.67 77.4989 147.5 97.0002 147.5C117.904 147.5 157.443 156.887 165.533 175.537ZM97.0002 130C116.338 130 132 114.337 132 95C132 75.6625 116.338 60 97.0002 60C77.6627 60 62.0002 75.6625 62.0002 95C62.0002 114.337 77.6627 130 97.0002 130Z" fill="#A4A4A4"/>
<path fill-rule="evenodd" clip-rule="evenodd" d="M165.533 175.537C186.648 157.202 200 130.16 200 100C200 44.7715 155.228 0 100 0C44.7715 0 0 44.7715 0 100C0 141.421 25.184 176.961 61.0755 192.142C49.6435 187.306 39.2979 180.405 30.5063 171.907C41.7803 155.67 77.4989 147.5 97.0002 147.5C117.904 147.5 157.443 156.887 165.533 175.537ZM97.0002 130C116.338 130 132 114.337 132 95C132 75.6625 116.338 60 97.0002 60C77.6627 60 62.0002 75.6625 62.0002 95C62.0002 114.337 77.6627 130 97.0002 130Z" fill="url(#paint0_linear)"/>
<defs>
<linearGradient id="paint0_linear" x1="100" y1="4.21889e-06" x2="372" y2="222" gradientUnits="userSpaceOnUse">
<stop stop-color="#4D360B" stop-opacity="0.72"/>
<stop offset="1" stop-color="white" stop-opacity="0"/>
</linearGradient>
</defs>
</svg>
