<svg width="263" height="252" viewBox="0 0 263 252" fill="none" xmlns="http://www.w3.org/2000/svg">
<path d="M8.8418 237.523L8.96484 237.172L15.5391 219.98H16.5938L8.08594 242.305L7.66406 243.359C6.75 245.574 5.23828 246.682 3.12891 246.682C2.44922 246.682 1.98047 246.617 1.72266 246.488L1.70508 245.592C2.08008 245.697 2.50781 245.75 2.98828 245.75C3.98438 245.75 4.81055 245.457 5.4668 244.871C6.12305 244.297 6.69141 243.354 7.17188 242.041L8.33203 238.895L0.755859 219.98H1.79297L8.8418 237.523ZM17.2322 229.121C17.2322 227.305 17.5779 225.676 18.2693 224.234C18.9724 222.781 19.9568 221.65 21.2224 220.842C22.4998 220.033 23.9412 219.629 25.5466 219.629C27.1404 219.629 28.5701 220.021 29.8357 220.807C31.1013 221.592 32.0857 222.705 32.7888 224.146C33.5037 225.588 33.867 227.211 33.8787 229.016V229.859C33.8787 231.688 33.533 233.322 32.8416 234.764C32.1502 236.205 31.1658 237.33 29.8884 238.139C28.6228 238.947 27.1873 239.352 25.5818 239.352C23.9763 239.352 22.5349 238.953 21.2576 238.156C19.992 237.359 19.0076 236.246 18.3045 234.816C17.6013 233.375 17.2439 231.758 17.2322 229.965V229.121ZM18.1814 229.859C18.1814 231.441 18.492 232.895 19.113 234.219C19.7459 235.531 20.6189 236.557 21.7322 237.295C22.8572 238.033 24.1404 238.402 25.5818 238.402C27.7498 238.402 29.5134 237.588 30.8728 235.959C32.2439 234.33 32.9295 232.232 32.9295 229.666V229.121C32.9295 227.562 32.613 226.121 31.9802 224.797C31.3474 223.473 30.4685 222.441 29.3435 221.703C28.2302 220.953 26.9646 220.578 25.5466 220.578C23.3787 220.578 21.6091 221.404 20.238 223.057C18.867 224.709 18.1814 226.789 18.1814 229.297V229.859ZM49.9859 239V235.924C49.4234 236.979 48.603 237.816 47.5249 238.438C46.4468 239.047 45.0816 239.352 43.4292 239.352C41.355 239.352 39.7964 238.748 38.7534 237.541C37.7222 236.322 37.1948 234.553 37.1714 232.232V219.98H38.1206V232.268C38.1441 234.283 38.6011 235.812 39.4917 236.855C40.3823 237.887 41.6831 238.402 43.3941 238.402C45.2105 238.402 46.687 237.975 47.8237 237.119C48.9605 236.264 49.6812 235.01 49.9859 233.357V219.98H50.9527V239H49.9859ZM64.0891 220.666L62.8587 220.561C61.2415 220.561 59.888 221.088 58.7981 222.143C57.7083 223.186 56.9934 224.65 56.6536 226.537V239H55.7044V219.98H56.6536V223.936C57.1692 222.611 57.9427 221.562 58.9739 220.789C60.0052 220.016 61.3001 219.629 62.8587 219.629C63.4095 219.629 63.8548 219.693 64.1946 219.822L64.0891 220.666ZM72.4148 229.121C72.4148 227.305 72.7605 225.676 73.452 224.234C74.1551 222.781 75.1395 221.65 76.4051 220.842C77.6824 220.033 79.1238 219.629 80.7293 219.629C82.323 219.629 83.7527 220.021 85.0184 220.807C86.284 221.592 87.2684 222.705 87.9715 224.146C88.6863 225.588 89.0496 227.211 89.0613 229.016V229.859C89.0613 231.688 88.7156 233.322 88.0242 234.764C87.3328 236.205 86.3484 237.33 85.0711 238.139C83.8055 238.947 82.3699 239.352 80.7645 239.352C79.159 239.352 77.7176 238.953 76.4402 238.156C75.1746 237.359 74.1902 236.246 73.4871 234.816C72.784 233.375 72.4266 231.758 72.4148 229.965V229.121ZM73.3641 229.859C73.3641 231.441 73.6746 232.895 74.2957 234.219C74.9285 235.531 75.8016 236.557 76.9148 237.295C78.0398 238.033 79.323 238.402 80.7645 238.402C82.9324 238.402 84.6961 237.588 86.0555 235.959C87.4266 234.33 88.1121 232.232 88.1121 229.666V229.121C88.1121 227.562 87.7957 226.121 87.1629 224.797C86.5301 223.473 85.6512 222.441 84.5262 221.703C83.4129 220.953 82.1473 220.578 80.7293 220.578C78.5613 220.578 76.7918 221.404 75.4207 223.057C74.0496 224.709 73.3641 226.789 73.3641 229.297V229.859ZM95.8345 233.498L96.8716 237.594L102.444 219.98H103.411L108.948 237.594L110.02 233.498L113.887 219.98H114.995L109.458 239H108.508L103.815 224.709L102.919 221.299L101.952 224.709L97.3287 239H96.3795L90.8599 219.98H91.9498L95.8345 233.498ZM119.36 224.41C119.981 222.934 120.895 221.768 122.102 220.912C123.309 220.057 124.645 219.629 126.11 219.629C128.149 219.629 129.66 220.209 130.645 221.369C131.641 222.518 132.145 224.258 132.157 226.59V239H131.207V226.555C131.196 224.516 130.78 223.01 129.959 222.037C129.139 221.053 127.838 220.561 126.057 220.561C124.416 220.561 122.993 221.146 121.785 222.318C120.59 223.479 119.782 224.979 119.36 226.818V239H118.41V219.98H119.36V224.41ZM148.598 234.342C148.598 232.033 146.629 230.463 142.691 229.631C140.324 229.127 138.678 228.482 137.752 227.697C136.826 226.9 136.363 225.811 136.363 224.428C136.363 223.033 136.949 221.885 138.121 220.982C139.305 220.08 140.84 219.629 142.727 219.629C144.777 219.629 146.424 220.121 147.666 221.105C148.908 222.078 149.529 223.396 149.529 225.061H148.563C148.563 223.783 148.024 222.717 146.945 221.861C145.867 221.006 144.461 220.578 142.727 220.578C141.063 220.578 139.744 220.941 138.772 221.668C137.799 222.395 137.313 223.303 137.313 224.393C137.313 225.248 137.494 225.922 137.857 226.414C138.221 226.895 138.813 227.334 139.633 227.732C140.453 228.119 141.649 228.494 143.219 228.857C144.789 229.221 146.031 229.648 146.945 230.141C147.859 230.633 148.522 231.219 148.932 231.898C149.342 232.566 149.547 233.387 149.547 234.359C149.547 235.859 148.932 237.066 147.701 237.98C146.471 238.895 144.859 239.352 142.867 239.352C140.734 239.352 139.012 238.871 137.699 237.91C136.399 236.938 135.748 235.689 135.748 234.166H136.697C136.791 235.502 137.377 236.545 138.455 237.295C139.545 238.033 141.016 238.402 142.867 238.402C144.566 238.402 145.943 238.01 146.998 237.225C148.065 236.428 148.598 235.467 148.598 234.342ZM153.103 238.139C153.103 237.869 153.197 237.641 153.385 237.453C153.572 237.254 153.801 237.154 154.07 237.154C154.34 237.154 154.568 237.254 154.756 237.453C154.955 237.641 155.055 237.869 155.055 238.139C155.055 238.408 154.955 238.637 154.756 238.824C154.568 239.012 154.34 239.105 154.07 239.105C153.801 239.105 153.572 239.012 153.385 238.824C153.197 238.637 153.103 238.408 153.103 238.139Z" fill="#2C1F06"/>
<path d="M51.3105 189C51.0762 188.191 50.959 187.031 50.959 185.52C50.209 186.738 49.1836 187.682 47.8828 188.35C46.582 189.018 45.1113 189.352 43.4707 189.352C41.7129 189.352 40.2949 188.877 39.2168 187.928C38.1504 186.967 37.6172 185.719 37.6172 184.184C37.6172 182.438 38.4023 181.043 39.9727 180C41.5547 178.945 43.6523 178.406 46.2656 178.383H50.959V175.605C50.959 174.012 50.4551 172.775 49.4473 171.896C48.4512 171.018 47.0215 170.578 45.1582 170.578C43.4238 170.578 41.9766 171.023 40.8164 171.914C39.6562 172.805 39.0762 173.906 39.0762 175.219L38.127 175.184C38.127 173.637 38.8066 172.324 40.166 171.246C41.5254 170.168 43.1895 169.629 45.1582 169.629C47.209 169.629 48.8379 170.145 50.0449 171.176C51.252 172.195 51.873 173.637 51.9082 175.5V184.588C51.9082 186.674 52.0723 188.092 52.4004 188.842V189H51.3105ZM43.4707 188.42C45.252 188.42 46.7812 188.021 48.0586 187.225C49.3477 186.428 50.3145 185.309 50.959 183.867V179.35H46.5645C43.8457 179.35 41.7656 179.889 40.3242 180.967C39.1523 181.846 38.5664 182.941 38.5664 184.254C38.5664 185.414 39.0293 186.398 39.9551 187.207C40.8809 188.016 42.0527 188.42 43.4707 188.42ZM57.7322 174.41C58.3533 172.934 59.2673 171.768 60.4744 170.912C61.6814 170.057 63.0173 169.629 64.4822 169.629C66.5212 169.629 68.033 170.209 69.0173 171.369C70.0134 172.518 70.5173 174.258 70.5291 176.59V189H69.5798V176.555C69.5681 174.516 69.1521 173.01 68.3318 172.037C67.5115 171.053 66.2107 170.561 64.4295 170.561C62.7888 170.561 61.365 171.146 60.158 172.318C58.9627 173.479 58.1541 174.979 57.7322 176.818V189H56.783V169.98H57.7322V174.41ZM74.3667 179.297C74.3667 176.262 75.0054 173.895 76.2827 172.195C77.5601 170.484 79.312 169.629 81.5386 169.629C82.9683 169.629 84.228 169.951 85.3179 170.596C86.4195 171.24 87.3101 172.201 87.9898 173.479V162H88.939V189H87.9898V185.959C87.3452 187.037 86.4605 187.875 85.3355 188.473C84.2105 189.059 82.9331 189.352 81.5034 189.352C79.3003 189.352 77.5601 188.479 76.2827 186.732C75.0054 184.986 74.3667 182.59 74.3667 179.543V179.297ZM75.3511 179.666C75.3511 182.361 75.8843 184.494 76.9507 186.064C78.0171 187.623 79.5288 188.402 81.4859 188.402C83.0562 188.402 84.398 188.057 85.5112 187.365C86.6245 186.662 87.4507 185.637 87.9898 184.289V175.377C86.8999 172.178 84.7437 170.578 81.521 170.578C79.5757 170.578 78.0581 171.346 76.9683 172.881C75.8902 174.416 75.3511 176.678 75.3511 179.666ZM113.806 189V185.924C113.243 186.979 112.423 187.816 111.345 188.438C110.267 189.047 108.901 189.352 107.249 189.352C105.175 189.352 103.616 188.748 102.573 187.541C101.542 186.322 101.015 184.553 100.991 182.232V169.98H101.94V182.268C101.964 184.283 102.421 185.812 103.312 186.855C104.202 187.887 105.503 188.402 107.214 188.402C109.03 188.402 110.507 187.975 111.644 187.119C112.78 186.264 113.501 185.01 113.806 183.357V169.98H114.772V189H113.806ZM134.061 179.666C134.061 182.631 133.423 184.986 132.145 186.732C130.868 188.479 129.128 189.352 126.925 189.352C125.483 189.352 124.2 189.059 123.075 188.473C121.95 187.887 121.071 187.078 120.438 186.047V196.312H119.489V169.98H120.438V173.373C121.095 172.166 121.979 171.24 123.093 170.596C124.206 169.951 125.471 169.629 126.889 169.629C129.116 169.629 130.868 170.484 132.145 172.195C133.423 173.895 134.061 176.285 134.061 179.367V179.666ZM133.095 179.297C133.095 176.566 132.55 174.434 131.46 172.898C130.382 171.352 128.864 170.578 126.907 170.578C125.313 170.578 123.96 170.994 122.846 171.826C121.733 172.646 120.93 173.83 120.438 175.377V184.271C120.93 185.584 121.733 186.604 122.846 187.33C123.971 188.045 125.337 188.402 126.942 188.402C128.887 188.402 130.399 187.629 131.477 186.082C132.555 184.535 133.095 182.273 133.095 179.297ZM139.165 189H138.215V162H139.165V189ZM142.703 179.121C142.703 177.305 143.049 175.676 143.741 174.234C144.444 172.781 145.428 171.65 146.694 170.842C147.971 170.033 149.412 169.629 151.018 169.629C152.612 169.629 154.041 170.021 155.307 170.807C156.573 171.592 157.557 172.705 158.26 174.146C158.975 175.588 159.338 177.211 159.35 179.016V179.859C159.35 181.688 159.004 183.322 158.313 184.764C157.621 186.205 156.637 187.33 155.36 188.139C154.094 188.947 152.659 189.352 151.053 189.352C149.448 189.352 148.006 188.953 146.729 188.156C145.463 187.359 144.479 186.246 143.776 184.816C143.073 183.375 142.715 181.758 142.703 179.965V179.121ZM143.653 179.859C143.653 181.441 143.963 182.895 144.584 184.219C145.217 185.531 146.09 186.557 147.203 187.295C148.328 188.033 149.612 188.402 151.053 188.402C153.221 188.402 154.985 187.588 156.344 185.959C157.715 184.33 158.401 182.232 158.401 179.666V179.121C158.401 177.562 158.084 176.121 157.451 174.797C156.819 173.473 155.94 172.441 154.815 171.703C153.701 170.953 152.436 170.578 151.018 170.578C148.85 170.578 147.08 171.404 145.709 173.057C144.338 174.709 143.653 176.789 143.653 179.297V179.859ZM175 189C174.766 188.191 174.649 187.031 174.649 185.52C173.899 186.738 172.873 187.682 171.572 188.35C170.272 189.018 168.801 189.352 167.16 189.352C165.402 189.352 163.984 188.877 162.906 187.928C161.84 186.967 161.307 185.719 161.307 184.184C161.307 182.438 162.092 181.043 163.662 180C165.244 178.945 167.342 178.406 169.955 178.383H174.649V175.605C174.649 174.012 174.145 172.775 173.137 171.896C172.141 171.018 170.711 170.578 168.848 170.578C167.113 170.578 165.666 171.023 164.506 171.914C163.346 172.805 162.766 173.906 162.766 175.219L161.816 175.184C161.816 173.637 162.496 172.324 163.856 171.246C165.215 170.168 166.879 169.629 168.848 169.629C170.899 169.629 172.527 170.145 173.734 171.176C174.941 172.195 175.563 173.637 175.598 175.5V184.588C175.598 186.674 175.762 188.092 176.09 188.842V189H175ZM167.16 188.42C168.941 188.42 170.471 188.021 171.748 187.225C173.037 186.428 174.004 185.309 174.649 183.867V179.35H170.254C167.535 179.35 165.455 179.889 164.014 180.967C162.842 181.846 162.256 182.941 162.256 184.254C162.256 185.414 162.719 186.398 163.645 187.207C164.57 188.016 165.742 188.42 167.16 188.42ZM179.594 179.297C179.594 176.262 180.232 173.895 181.51 172.195C182.787 170.484 184.539 169.629 186.765 169.629C188.195 169.629 189.455 169.951 190.545 170.596C191.646 171.24 192.537 172.201 193.217 173.479V162H194.166V189H193.217V185.959C192.572 187.037 191.687 187.875 190.562 188.473C189.437 189.059 188.16 189.352 186.73 189.352C184.527 189.352 182.787 188.479 181.51 186.732C180.232 184.986 179.594 182.59 179.594 179.543V179.297ZM180.578 179.666C180.578 182.361 181.111 184.494 182.178 186.064C183.244 187.623 184.756 188.402 186.713 188.402C188.283 188.402 189.625 188.057 190.738 187.365C191.851 186.662 192.678 185.637 193.217 184.289V175.377C192.127 172.178 189.971 170.578 186.748 170.578C184.803 170.578 183.285 171.346 182.195 172.881C181.117 174.416 180.578 176.678 180.578 179.666Z" fill="#2C1F06"/>
<path d="M46.4648 139V120.947H43.1602V119.98H46.4648V117.203C46.4766 115.445 46.916 114.08 47.7832 113.107C48.6621 112.123 49.8809 111.631 51.4395 111.631C52.3066 111.631 53.0566 111.73 53.6895 111.93L53.5488 112.844C52.9395 112.668 52.2422 112.58 51.457 112.58C50.2031 112.58 49.2129 112.99 48.4863 113.811C47.7715 114.619 47.4141 115.773 47.4141 117.273V119.98H52.4414V120.947H47.4141V139H46.4648ZM63.5037 120.666L62.2732 120.561C60.656 120.561 59.3025 121.088 58.2127 122.143C57.1228 123.186 56.408 124.65 56.0681 126.537V139H55.1189V119.98H56.0681V123.936C56.5837 122.611 57.3572 121.562 58.3884 120.789C59.4197 120.016 60.7146 119.629 62.2732 119.629C62.824 119.629 63.2693 119.693 63.6091 119.822L63.5037 120.666ZM72.4038 139.352C70.8687 139.352 69.4566 138.941 68.1675 138.121C66.8902 137.289 65.8882 136.152 65.1616 134.711C64.4351 133.27 64.0718 131.67 64.0718 129.912V129.121C64.0718 127.363 64.4234 125.752 65.1265 124.287C65.8296 122.822 66.7964 121.68 68.0269 120.859C69.2573 120.039 70.5991 119.629 72.0523 119.629C74.1734 119.629 75.9077 120.385 77.2554 121.896C78.603 123.408 79.2769 125.395 79.2769 127.855V128.857H65.021V129.895C65.021 131.441 65.3433 132.877 65.9878 134.201C66.6441 135.514 67.5405 136.545 68.6773 137.295C69.8257 138.045 71.0679 138.42 72.4038 138.42C73.6812 138.42 74.7652 138.209 75.6558 137.787C76.5581 137.354 77.355 136.691 78.0464 135.801L78.7144 136.275C77.2964 138.326 75.1929 139.352 72.4038 139.352ZM72.0523 120.578C70.2007 120.578 68.6304 121.27 67.3413 122.652C66.0523 124.023 65.2964 125.775 65.0737 127.908H78.3277V127.68C78.3277 126.391 78.0523 125.195 77.5015 124.094C76.9624 122.98 76.2124 122.119 75.2515 121.51C74.3023 120.889 73.2359 120.578 72.0523 120.578ZM89.2845 139.352C87.7493 139.352 86.3372 138.941 85.0481 138.121C83.7708 137.289 82.7688 136.152 82.0423 134.711C81.3157 133.27 80.9524 131.67 80.9524 129.912V129.121C80.9524 127.363 81.304 125.752 82.0071 124.287C82.7102 122.822 83.677 121.68 84.9075 120.859C86.138 120.039 87.4798 119.629 88.9329 119.629C91.054 119.629 92.7884 120.385 94.136 121.896C95.4837 123.408 96.1575 125.395 96.1575 127.855V128.857H81.9016V129.895C81.9016 131.441 82.2239 132.877 82.8684 134.201C83.5247 135.514 84.4212 136.545 85.5579 137.295C86.7063 138.045 87.9485 138.42 89.2845 138.42C90.5618 138.42 91.6458 138.209 92.5364 137.787C93.4388 137.354 94.2356 136.691 94.927 135.801L95.595 136.275C94.177 138.326 92.0735 139.352 89.2845 139.352ZM88.9329 120.578C87.0813 120.578 85.511 121.27 84.222 122.652C82.9329 124.023 82.177 125.775 81.9544 127.908H95.2083V127.68C95.2083 126.391 94.9329 125.195 94.3821 124.094C93.843 122.98 93.093 122.119 92.1321 121.51C91.1829 120.889 90.1165 120.578 88.9329 120.578ZM111.052 134.342C111.052 132.033 109.083 130.463 105.146 129.631C102.778 129.127 101.132 128.482 100.206 127.697C99.2803 126.9 98.8174 125.811 98.8174 124.428C98.8174 123.033 99.4034 121.885 100.575 120.982C101.759 120.08 103.294 119.629 105.181 119.629C107.231 119.629 108.878 120.121 110.12 121.105C111.362 122.078 111.983 123.396 111.983 125.061H111.017C111.017 123.783 110.478 122.717 109.399 121.861C108.321 121.006 106.915 120.578 105.181 120.578C103.517 120.578 102.198 120.941 101.226 121.668C100.253 122.395 99.7666 123.303 99.7666 124.393C99.7666 125.248 99.9483 125.922 100.312 126.414C100.675 126.895 101.267 127.334 102.087 127.732C102.907 128.119 104.103 128.494 105.673 128.857C107.243 129.221 108.485 129.648 109.399 130.141C110.314 130.633 110.976 131.219 111.386 131.898C111.796 132.566 112.001 133.387 112.001 134.359C112.001 135.859 111.386 137.066 110.155 137.98C108.925 138.895 107.314 139.352 105.321 139.352C103.189 139.352 101.466 138.871 100.153 137.91C98.8526 136.938 98.2022 135.689 98.2022 134.166H99.1514C99.2452 135.502 99.8311 136.545 100.909 137.295C101.999 138.033 103.47 138.402 105.321 138.402C107.021 138.402 108.397 138.01 109.452 137.225C110.519 136.428 111.052 135.467 111.052 134.342ZM118.124 114.848V119.98H122.448V120.947H118.124V134.447C118.124 135.795 118.341 136.791 118.774 137.436C119.22 138.08 119.958 138.402 120.989 138.402C121.505 138.402 122.132 138.35 122.87 138.244L123.028 139.141C122.641 139.281 121.979 139.352 121.042 139.352C119.659 139.352 118.669 138.971 118.071 138.209C117.473 137.436 117.169 136.223 117.157 134.57V120.947H113.641V119.98H117.157V114.848H118.124ZM131.946 137.523L132.069 137.172L138.643 119.98H139.698L131.19 142.305L130.768 143.359C129.854 145.574 128.342 146.682 126.233 146.682C125.553 146.682 125.085 146.617 124.827 146.488L124.809 145.592C125.184 145.697 125.612 145.75 126.092 145.75C127.088 145.75 127.915 145.457 128.571 144.871C129.227 144.297 129.795 143.354 130.276 142.041L131.436 138.895L123.86 119.98H124.897L131.946 137.523ZM143.237 139H142.287V112H143.237V139ZM155.055 139.352C153.52 139.352 152.107 138.941 150.818 138.121C149.541 137.289 148.539 136.152 147.813 134.711C147.086 133.27 146.723 131.67 146.723 129.912V129.121C146.723 127.363 147.074 125.752 147.777 124.287C148.481 122.822 149.447 121.68 150.678 120.859C151.908 120.039 153.25 119.629 154.703 119.629C156.824 119.629 158.559 120.385 159.906 121.896C161.254 123.408 161.928 125.395 161.928 127.855V128.857H147.672V129.895C147.672 131.441 147.994 132.877 148.639 134.201C149.295 135.514 150.191 136.545 151.328 137.295C152.477 138.045 153.719 138.42 155.055 138.42C156.332 138.42 157.416 138.209 158.307 137.787C159.209 137.354 160.006 136.691 160.697 135.801L161.365 136.275C159.947 138.326 157.844 139.352 155.055 139.352ZM154.703 120.578C152.852 120.578 151.281 121.27 149.992 122.652C148.703 124.023 147.947 125.775 147.725 127.908H160.979V127.68C160.979 126.391 160.703 125.195 160.152 124.094C159.613 122.98 158.863 122.119 157.902 121.51C156.953 120.889 155.887 120.578 154.703 120.578ZM176.822 134.342C176.822 132.033 174.853 130.463 170.916 129.631C168.549 129.127 166.902 128.482 165.976 127.697C165.051 126.9 164.588 125.811 164.588 124.428C164.588 123.033 165.174 121.885 166.346 120.982C167.529 120.08 169.064 119.629 170.951 119.629C173.002 119.629 174.648 120.121 175.89 121.105C177.133 122.078 177.754 123.396 177.754 125.061H176.787C176.787 123.783 176.248 122.717 175.17 121.861C174.092 121.006 172.685 120.578 170.951 120.578C169.287 120.578 167.969 120.941 166.996 121.668C166.023 122.395 165.537 123.303 165.537 124.393C165.537 125.248 165.719 125.922 166.082 126.414C166.445 126.895 167.037 127.334 167.857 127.732C168.678 128.119 169.873 128.494 171.443 128.857C173.014 129.221 174.256 129.648 175.17 130.141C176.084 130.633 176.746 131.219 177.156 131.898C177.566 132.566 177.771 133.387 177.771 134.359C177.771 135.859 177.156 137.066 175.926 137.98C174.695 138.895 173.084 139.352 171.092 139.352C168.959 139.352 167.236 138.871 165.924 137.91C164.623 136.938 163.973 135.689 163.973 134.166H164.922C165.015 135.502 165.601 136.545 166.68 137.295C167.769 138.033 169.24 138.402 171.092 138.402C172.791 138.402 174.168 138.01 175.223 137.225C176.289 136.428 176.822 135.467 176.822 134.342ZM191.247 114.848V119.98H195.572V120.947H191.247V134.447C191.247 135.795 191.464 136.791 191.898 137.436C192.343 138.08 193.081 138.402 194.113 138.402C194.628 138.402 195.255 138.35 195.994 138.244L196.152 139.141C195.765 139.281 195.103 139.352 194.165 139.352C192.783 139.352 191.792 138.971 191.195 138.209C190.597 137.436 190.292 136.223 190.281 134.57V120.947H186.765V119.98H190.281V114.848H191.247ZM207.636 120.666L206.405 120.561C204.788 120.561 203.435 121.088 202.345 122.143C201.255 123.186 200.54 124.65 200.2 126.537V139H199.251V119.98H200.2V123.936C200.716 122.611 201.489 121.562 202.521 120.789C203.552 120.016 204.847 119.629 206.405 119.629C206.956 119.629 207.401 119.693 207.741 119.822L207.636 120.666ZM211.227 139H210.278V119.98H211.227V139ZM209.786 114.039C209.786 113.77 209.88 113.541 210.067 113.354C210.255 113.154 210.483 113.055 210.753 113.055C211.022 113.055 211.251 113.154 211.438 113.354C211.638 113.541 211.737 113.77 211.737 114.039C211.737 114.309 211.638 114.537 211.438 114.725C211.251 114.912 211.022 115.006 210.753 115.006C210.483 115.006 210.255 114.912 210.067 114.725C209.88 114.537 209.786 114.309 209.786 114.039ZM222.659 138.402C224.381 138.402 225.799 137.945 226.913 137.031C228.038 136.117 228.653 134.852 228.758 133.234H229.708C229.614 135.074 228.905 136.557 227.581 137.682C226.256 138.795 224.616 139.352 222.659 139.352C220.28 139.352 218.387 138.49 216.981 136.768C215.587 135.045 214.889 132.707 214.889 129.754V129.121C214.889 126.238 215.587 123.936 216.981 122.213C218.387 120.49 220.268 119.629 222.624 119.629C224.639 119.629 226.303 120.232 227.616 121.439C228.928 122.646 229.626 124.252 229.708 126.256H228.758C228.676 124.545 228.073 123.174 226.948 122.143C225.835 121.1 224.393 120.578 222.624 120.578C220.503 120.578 218.839 121.346 217.631 122.881C216.436 124.404 215.839 126.525 215.839 129.244V129.859C215.839 132.52 216.442 134.611 217.649 136.135C218.868 137.646 220.538 138.402 222.659 138.402ZM236.973 128.717L236.938 128.752L234.178 131.125V139H233.229V112H234.178V130.088L236.411 127.979L245.059 119.98H246.413L237.676 128.084L246.957 139H245.727L236.973 128.717ZM260.744 134.342C260.744 132.033 258.776 130.463 254.838 129.631C252.471 129.127 250.824 128.482 249.899 127.697C248.973 126.9 248.51 125.811 248.51 124.428C248.51 123.033 249.096 121.885 250.268 120.982C251.451 120.08 252.986 119.629 254.873 119.629C256.924 119.629 258.57 120.121 259.813 121.105C261.055 122.078 261.676 123.396 261.676 125.061H260.709C260.709 123.783 260.17 122.717 259.092 121.861C258.014 121.006 256.608 120.578 254.873 120.578C253.209 120.578 251.891 120.941 250.918 121.668C249.945 122.395 249.459 123.303 249.459 124.393C249.459 125.248 249.641 125.922 250.004 126.414C250.367 126.895 250.959 127.334 251.779 127.732C252.6 128.119 253.795 128.494 255.365 128.857C256.936 129.221 258.178 129.648 259.092 130.141C260.006 130.633 260.668 131.219 261.078 131.898C261.488 132.566 261.694 133.387 261.694 134.359C261.694 135.859 261.078 137.066 259.848 137.98C258.617 138.895 257.006 139.352 255.014 139.352C252.881 139.352 251.158 138.871 249.846 137.91C248.545 136.938 247.895 135.689 247.895 134.166H248.844C248.938 135.502 249.524 136.545 250.602 137.295C251.692 138.033 253.162 138.402 255.014 138.402C256.713 138.402 258.09 138.01 259.145 137.225C260.211 136.428 260.744 135.467 260.744 134.342Z" fill="#2C1F06"/>
<path d="M74.4901 66.8477V71.9805H78.8143V72.9473H74.4901V86.4473C74.4901 87.7949 74.7069 88.791 75.1405 89.4355C75.5858 90.0801 76.3241 90.4023 77.3553 90.4023C77.8709 90.4023 78.4979 90.3496 79.2362 90.2441L79.3944 91.1406C79.0077 91.2812 78.3455 91.3516 77.408 91.3516C76.0252 91.3516 75.035 90.9707 74.4373 90.209C73.8397 89.4355 73.535 88.2227 73.5233 86.5703V72.9473H70.0077V71.9805H73.5233V66.8477H74.4901ZM80.7008 81.1211C80.7008 79.3047 81.0465 77.6758 81.7379 76.2344C82.441 74.7812 83.4254 73.6504 84.691 72.8418C85.9684 72.0332 87.4098 71.6289 89.0152 71.6289C90.609 71.6289 92.0387 72.0215 93.3043 72.8066C94.5699 73.5918 95.5543 74.7051 96.2574 76.1465C96.9723 77.5879 97.3355 79.2109 97.3473 81.0156V81.8594C97.3473 83.6875 97.0016 85.3223 96.3102 86.7637C95.6187 88.2051 94.6344 89.3301 93.357 90.1387C92.0914 90.9473 90.6559 91.3516 89.0504 91.3516C87.4449 91.3516 86.0035 90.9531 84.7262 90.1562C83.4605 89.3594 82.4762 88.2461 81.773 86.8164C81.0699 85.375 80.7125 83.7578 80.7008 81.9648V81.1211ZM81.65 81.8594C81.65 83.4414 81.9605 84.8945 82.5816 86.2188C83.2145 87.5312 84.0875 88.5566 85.2008 89.2949C86.3258 90.0332 87.609 90.4023 89.0504 90.4023C91.2184 90.4023 92.982 89.5879 94.3414 87.959C95.7125 86.3301 96.398 84.2324 96.398 81.666V81.1211C96.398 79.5625 96.0816 78.1211 95.4488 76.7969C94.816 75.4727 93.9371 74.4414 92.8121 73.7031C91.6988 72.9531 90.4332 72.5781 89.0152 72.5781C86.8473 72.5781 85.0777 73.4043 83.7066 75.0566C82.3355 76.709 81.65 78.7891 81.65 81.2969V81.8594ZM111.474 85.498L112.511 89.5938L118.083 71.9805H119.05L124.587 89.5938L125.659 85.498L129.526 71.9805H130.634L125.097 91H124.148L119.454 76.709L118.558 73.2988L117.591 76.709L112.968 91H112.019L106.499 71.9805H107.589L111.474 85.498ZM146.337 91C146.102 90.1914 145.985 89.0312 145.985 87.5195C145.235 88.7383 144.21 89.6816 142.909 90.3496C141.608 91.0176 140.138 91.3516 138.497 91.3516C136.739 91.3516 135.321 90.877 134.243 89.9277C133.177 88.9668 132.643 87.7188 132.643 86.1836C132.643 84.4375 133.429 83.043 134.999 82C136.581 80.9453 138.679 80.4062 141.292 80.3828H145.985V77.6055C145.985 76.0117 145.481 74.7754 144.474 73.8965C143.477 73.0176 142.048 72.5781 140.184 72.5781C138.45 72.5781 137.003 73.0234 135.843 73.9141C134.682 74.8047 134.102 75.9062 134.102 77.2188L133.153 77.1836C133.153 75.6367 133.833 74.3242 135.192 73.2461C136.552 72.168 138.216 71.6289 140.184 71.6289C142.235 71.6289 143.864 72.1445 145.071 73.1758C146.278 74.1953 146.899 75.6367 146.934 77.5V86.5879C146.934 88.6738 147.099 90.0918 147.427 90.8418V91H146.337ZM138.497 90.4199C140.278 90.4199 141.807 90.0215 143.085 89.2246C144.374 88.4277 145.341 87.3086 145.985 85.8672V81.3496H141.591C138.872 81.3496 136.792 81.8887 135.35 82.9668C134.179 83.8457 133.593 84.9414 133.593 86.2539C133.593 87.4141 134.056 88.3984 134.981 89.207C135.907 90.0156 137.079 90.4199 138.497 90.4199ZM153.936 66.8477V71.9805H158.26V72.9473H153.936V86.4473C153.936 87.7949 154.153 88.791 154.587 89.4355C155.032 90.0801 155.77 90.4023 156.801 90.4023C157.317 90.4023 157.944 90.3496 158.682 90.2441L158.84 91.1406C158.454 91.2812 157.792 91.3516 156.854 91.3516C155.471 91.3516 154.481 90.9707 153.883 90.209C153.286 89.4355 152.981 88.2227 152.969 86.5703V72.9473H149.454V71.9805H152.969V66.8477H153.936ZM168.391 90.4023C170.114 90.4023 171.532 89.9453 172.645 89.0312C173.77 88.1172 174.385 86.8516 174.491 85.2344H175.44C175.346 87.0742 174.637 88.5566 173.313 89.6816C171.989 90.7949 170.348 91.3516 168.391 91.3516C166.012 91.3516 164.12 90.4902 162.713 88.7676C161.319 87.0449 160.621 84.707 160.621 81.7539V81.1211C160.621 78.2383 161.319 75.9355 162.713 74.2129C164.12 72.4902 166 71.6289 168.356 71.6289C170.371 71.6289 172.036 72.2324 173.348 73.4395C174.661 74.6465 175.358 76.252 175.44 78.2559H174.491C174.409 76.5449 173.805 75.1738 172.68 74.1426C171.567 73.0996 170.125 72.5781 168.356 72.5781C166.235 72.5781 164.571 73.3457 163.364 74.8809C162.168 76.4043 161.571 78.5254 161.571 81.2441V81.8594C161.571 84.5195 162.174 86.6113 163.381 88.1348C164.6 89.6465 166.27 90.4023 168.391 90.4023ZM179.91 76.4102C180.531 74.9336 181.445 73.7676 182.652 72.9121C183.86 72.0566 185.195 71.6289 186.66 71.6289C188.699 71.6289 190.211 72.209 191.195 73.3691C192.192 74.5176 192.695 76.2578 192.707 78.5898V91H191.758V78.5547C191.746 76.5156 191.33 75.0098 190.51 74.0371C189.69 73.0527 188.389 72.5605 186.608 72.5605C184.967 72.5605 183.543 73.1465 182.336 74.3184C181.141 75.4785 180.332 76.9785 179.91 78.8184V91H178.961V64H179.91V76.4102Z" fill="#2C1F06"/>
<path d="M91.197 36.8652C91.197 35.7754 90.9392 34.8555 90.4236 34.1055C89.9197 33.3438 89.117 32.6758 88.0154 32.1016C86.9255 31.5156 85.2732 30.918 83.0584 30.3086C80.8435 29.6992 79.1795 29.084 78.0662 28.4629C76.9646 27.8418 76.156 27.1211 75.6404 26.3008C75.1248 25.4805 74.867 24.4844 74.867 23.3125C74.867 21.4492 75.6521 19.9434 77.2224 18.7949C78.7927 17.6348 80.8377 17.0547 83.3572 17.0547C84.9978 17.0547 86.4685 17.377 87.7693 18.0215C89.0818 18.6543 90.0955 19.5508 90.8103 20.7109C91.5252 21.8594 91.8826 23.1602 91.8826 24.6133H90.9334C90.9334 22.7031 90.2302 21.127 88.824 19.8848C87.4177 18.6309 85.5955 18.0039 83.3572 18.0039C81.1072 18.0039 79.2849 18.5078 77.8904 19.5156C76.5076 20.5117 75.8162 21.7656 75.8162 23.2773C75.8162 24.8125 76.4197 26.0488 77.6267 26.9863C78.8337 27.9238 80.8259 28.7559 83.6033 29.4824C86.3806 30.1973 88.4138 31.0293 89.7029 31.9785C91.3435 33.1855 92.1638 34.8027 92.1638 36.8301C92.1638 38.1191 91.8005 39.2617 91.074 40.2578C90.3474 41.2422 89.3162 42.0039 87.9802 42.543C86.6443 43.082 85.1443 43.3516 83.4802 43.3516C81.6287 43.3516 79.9646 43.0469 78.488 42.4375C77.0115 41.8164 75.8982 40.9375 75.1482 39.8008C74.4099 38.6641 74.0408 37.3223 74.0408 35.7754H74.99C74.99 37.873 75.7752 39.502 77.3455 40.6621C78.9158 41.8223 80.9607 42.4023 83.4802 42.4023C85.7185 42.4023 87.5642 41.8926 89.0173 40.873C90.4705 39.8418 91.197 38.5059 91.197 36.8652ZM96.5991 43H95.6499V23.9805H96.5991V43ZM95.1577 18.0391C95.1577 17.7695 95.2515 17.541 95.439 17.3535C95.6265 17.1543 95.855 17.0547 96.1245 17.0547C96.3941 17.0547 96.6226 17.1543 96.8101 17.3535C97.0093 17.541 97.1089 17.7695 97.1089 18.0391C97.1089 18.3086 97.0093 18.5371 96.8101 18.7246C96.6226 18.9121 96.3941 19.0059 96.1245 19.0059C95.855 19.0059 95.6265 18.9121 95.439 18.7246C95.2515 18.5371 95.1577 18.3086 95.1577 18.0391ZM100.683 33.2969C100.683 30.2617 101.322 27.8945 102.599 26.1953C103.876 24.4844 105.628 23.6289 107.855 23.6289C109.273 23.6289 110.533 23.957 111.634 24.6133C112.736 25.2578 113.62 26.207 114.288 27.4609V23.9805H115.255V42.666C115.255 45.1738 114.611 47.1309 113.322 48.5371C112.033 49.9551 110.281 50.6641 108.066 50.6641C106.788 50.6641 105.616 50.3887 104.55 49.8379C103.495 49.2871 102.593 48.4961 101.843 47.4648L102.511 46.832C103.249 47.7695 104.058 48.4844 104.937 48.9766C105.816 49.4805 106.847 49.7324 108.031 49.7324C109.988 49.7324 111.511 49.1348 112.601 47.9395C113.691 46.7559 114.253 45.0801 114.288 42.9121V39.9941C113.632 41.0723 112.741 41.9043 111.616 42.4902C110.503 43.0645 109.238 43.3516 107.82 43.3516C105.616 43.3516 103.876 42.4785 102.599 40.7324C101.322 38.9863 100.683 36.5898 100.683 33.543V33.2969ZM101.65 33.666C101.65 36.3848 102.189 38.5234 103.267 40.082C104.345 41.6289 105.857 42.4023 107.802 42.4023C109.408 42.4023 110.773 42.0332 111.898 41.2949C113.023 40.5449 113.82 39.4961 114.288 38.1484V29.5176C113.257 26.2246 111.107 24.5781 107.837 24.5781C105.88 24.5781 104.357 25.3457 103.267 26.8809C102.189 28.416 101.65 30.6777 101.65 33.666ZM121.026 28.4102C121.647 26.9336 122.562 25.7676 123.769 24.9121C124.976 24.0566 126.312 23.6289 127.776 23.6289C129.815 23.6289 131.327 24.209 132.312 25.3691C133.308 26.5176 133.812 28.2578 133.823 30.5898V43H132.874V30.5547C132.862 28.5156 132.446 27.0098 131.626 26.0371C130.806 25.0527 129.505 24.5605 127.724 24.5605C126.083 24.5605 124.659 25.1465 123.452 26.3184C122.257 27.4785 121.448 28.9785 121.026 30.8184V43H120.077V23.9805H121.026V28.4102ZM158.637 43V39.9238C158.075 40.9785 157.254 41.8164 156.176 42.4375C155.098 43.0469 153.733 43.3516 152.081 43.3516C150.006 43.3516 148.448 42.748 147.405 41.541C146.374 40.3223 145.846 38.5527 145.823 36.2324V23.9805H146.772V36.2676C146.795 38.2832 147.253 39.8125 148.143 40.8555C149.034 41.8867 150.335 42.4023 152.045 42.4023C153.862 42.4023 155.338 41.9746 156.475 41.1191C157.612 40.2637 158.333 39.0098 158.637 37.3574V23.9805H159.604V43H158.637ZM178.893 33.666C178.893 36.6309 178.254 38.9863 176.977 40.7324C175.7 42.4785 173.959 43.3516 171.756 43.3516C170.315 43.3516 169.032 43.0586 167.907 42.4727C166.782 41.8867 165.903 41.0781 165.27 40.0469V50.3125H164.321V23.9805H165.27V27.373C165.926 26.166 166.811 25.2402 167.924 24.5957C169.037 23.9512 170.303 23.6289 171.721 23.6289C173.948 23.6289 175.7 24.4844 176.977 26.1953C178.254 27.8945 178.893 30.2852 178.893 33.3672V33.666ZM177.926 33.2969C177.926 30.5664 177.381 28.4336 176.291 26.8984C175.213 25.3516 173.696 24.5781 171.739 24.5781C170.145 24.5781 168.791 24.9941 167.678 25.8262C166.565 26.6465 165.762 27.8301 165.27 29.377V38.2715C165.762 39.584 166.565 40.6035 167.678 41.3301C168.803 42.0449 170.168 42.4023 171.774 42.4023C173.719 42.4023 175.231 41.6289 176.309 40.082C177.387 38.5352 177.926 36.2734 177.926 33.2969Z" fill="#2C1F06"/>
</svg>
